<?xml version="1.0" encoding="UTF-8" standalone="no"?>
<!DOCTYPE svg PUBLIC "-//W3C//DTD SVG 1.1//EN"
 "http://www.w3.org/Graphics/SVG/1.1/DTD/svg11.dtd">
<!-- Generated by graphviz version 9.0.0 (20231125.0833)
 -->
<!-- Title: snakemake_dag Pages: 1 -->
<svg width="3919pt" height="270pt"
 viewBox="0.00 0.00 3918.98 270.25" xmlns="http://www.w3.org/2000/svg" xmlns:xlink="http://www.w3.org/1999/xlink">
<g id="graph0" class="graph" transform="scale(1 1) rotate(0) translate(4 266.25)">
<title>snakemake_dag</title>
<polygon fill="white" stroke="none" points="-4,4 -4,-266.25 3914.98,-266.25 3914.98,4 -4,4"/>
<!-- 0 -->
<g id="node1" class="node">
<title>0</title>
<path fill="none" stroke="#56c1d8" stroke-width="2" d="M1749.23,-36C1749.23,-36 1688.23,-36 1688.23,-36 1682.23,-36 1676.23,-30 1676.23,-24 1676.23,-24 1676.23,-12 1676.23,-12 1676.23,-6 1682.23,0 1688.23,0 1688.23,0 1749.23,0 1749.23,0 1755.23,0 1761.23,-6 1761.23,-12 1761.23,-12 1761.23,-24 1761.23,-24 1761.23,-30 1755.23,-36 1749.23,-36"/>
<text text-anchor="middle" x="1718.73" y="-14.88" font-family="sans" font-size="10.00">combine_GLM</text>
</g>
<!-- 1 -->
<g id="node2" class="node">
<title>1</title>
<path fill="none" stroke="#d85656" stroke-width="2" stroke-dasharray="5,2" d="M138.11,-118.25C138.11,-118.25 31.36,-118.25 31.36,-118.25 25.36,-118.25 19.36,-112.25 19.36,-106.25 19.36,-106.25 19.36,-84 19.36,-84 19.36,-78 25.36,-72 31.36,-72 31.36,-72 138.11,-72 138.11,-72 144.11,-72 150.11,-78 150.11,-84 150.11,-84 150.11,-106.25 150.11,-106.25 150.11,-112.25 144.11,-118.25 138.11,-118.25"/>
<text text-anchor="middle" x="84.73" y="-104.75" font-family="sans" font-size="10.00">run_GLM</text>
<text text-anchor="middle" x="84.73" y="-92" font-family="sans" font-size="10.00">ephys_prop: v_baseline</text>
<text text-anchor="middle" x="84.73" y="-79.25" font-family="sans" font-size="10.00">model: simple</text>
</g>
<!-- 1&#45;&gt;0 -->
<g id="edge1" class="edge">
<title>1&#45;&gt;0</title>
<path fill="none" stroke="grey" stroke-width="2" d="M151.1,-73.41C153.67,-72.88 156.22,-72.41 158.73,-72 456.95,-23.19 1419.53,-19.2 1662.58,-18.98"/>
<polygon fill="grey" stroke="grey" stroke-width="2" points="1662.23,-22.48 1672.23,-18.98 1662.23,-15.48 1662.23,-22.48"/>
</g>
<!-- 2 -->
<g id="node3" class="node">
<title>2</title>
<path fill="none" stroke="#d8bc56" stroke-width="2" stroke-dasharray="5,2" d="M1733.73,-190.25C1733.73,-190.25 1703.73,-190.25 1703.73,-190.25 1697.73,-190.25 1691.73,-184.25 1691.73,-178.25 1691.73,-178.25 1691.73,-166.25 1691.73,-166.25 1691.73,-160.25 1697.73,-154.25 1703.73,-154.25 1703.73,-154.25 1733.73,-154.25 1733.73,-154.25 1739.73,-154.25 1745.73,-160.25 1745.73,-166.25 1745.73,-166.25 1745.73,-178.25 1745.73,-178.25 1745.73,-184.25 1739.73,-190.25 1733.73,-190.25"/>
<text text-anchor="middle" x="1718.73" y="-169.12" font-family="sans" font-size="10.00">filter</text>
</g>
<!-- 2&#45;&gt;0 -->
<g id="edge25" class="edge">
<title>2&#45;&gt;0</title>
<path fill="none" stroke="grey" stroke-width="2" d="M1691.04,-170.92C1473.09,-168.28 41.25,-149.73 10.73,-118.25 -3.58,-103.49 -3.58,-86.76 10.73,-72 40.16,-41.65 1371.93,-23.32 1662.94,-19.67"/>
<polygon fill="grey" stroke="grey" stroke-width="2" points="1662.63,-23.18 1672.59,-19.55 1662.55,-16.18 1662.63,-23.18"/>
</g>
<!-- 2&#45;&gt;1 -->
<g id="edge26" class="edge">
<title>2&#45;&gt;1</title>
<path fill="none" stroke="grey" stroke-width="2" d="M1690.76,-171.28C1509.33,-171.32 496.47,-169.3 163.6,-118.82"/>
<polygon fill="grey" stroke="grey" stroke-width="2" points="164.52,-115.42 154.09,-117.32 163.43,-122.33 164.52,-115.42"/>
</g>
<!-- 4 -->
<g id="node5" class="node">
<title>4</title>
<path fill="none" stroke="#d85656" stroke-width="2" stroke-dasharray="5,2" d="M287.48,-118.25C287.48,-118.25 179.98,-118.25 179.98,-118.25 173.98,-118.25 167.98,-112.25 167.98,-106.25 167.98,-106.25 167.98,-84 167.98,-84 167.98,-78 173.98,-72 179.98,-72 179.98,-72 287.48,-72 287.48,-72 293.48,-72 299.48,-78 299.48,-84 299.48,-84 299.48,-106.25 299.48,-106.25 299.48,-112.25 293.48,-118.25 287.48,-118.25"/>
<text text-anchor="middle" x="233.73" y="-104.75" font-family="sans" font-size="10.00">run_GLM</text>
<text text-anchor="middle" x="233.73" y="-92" font-family="sans" font-size="10.00">ephys_prop: rheobase_i</text>
<text text-anchor="middle" x="233.73" y="-79.25" font-family="sans" font-size="10.00">model: simple</text>
</g>
<!-- 2&#45;&gt;4 -->
<g id="edge28" class="edge">
<title>2&#45;&gt;4</title>
<path fill="none" stroke="grey" stroke-width="2" d="M1690.99,-171.15C1520.77,-170.39 615.17,-164.29 312.84,-118.66"/>
<polygon fill="grey" stroke="grey" stroke-width="2" points="313.6,-115.23 303.18,-117.13 312.51,-122.15 313.6,-115.23"/>
</g>
<!-- 5 -->
<g id="node6" class="node">
<title>5</title>
<path fill="none" stroke="#d85656" stroke-width="2" stroke-dasharray="5,2" d="M436.11,-118.25C436.11,-118.25 329.36,-118.25 329.36,-118.25 323.36,-118.25 317.36,-112.25 317.36,-106.25 317.36,-106.25 317.36,-84 317.36,-84 317.36,-78 323.36,-72 329.36,-72 329.36,-72 436.11,-72 436.11,-72 442.11,-72 448.11,-78 448.11,-84 448.11,-84 448.11,-106.25 448.11,-106.25 448.11,-112.25 442.11,-118.25 436.11,-118.25"/>
<text text-anchor="middle" x="382.73" y="-104.75" font-family="sans" font-size="10.00">run_GLM</text>
<text text-anchor="middle" x="382.73" y="-92" font-family="sans" font-size="10.00">ephys_prop: fi_fit_slope</text>
<text text-anchor="middle" x="382.73" y="-79.25" font-family="sans" font-size="10.00">model: simple</text>
</g>
<!-- 2&#45;&gt;5 -->
<g id="edge29" class="edge">
<title>2&#45;&gt;5</title>
<path fill="none" stroke="grey" stroke-width="2" d="M1690.82,-171.02C1531.13,-169.56 731.39,-160.35 461.17,-118.74"/>
<polygon fill="grey" stroke="grey" stroke-width="2" points="462.12,-115.35 451.69,-117.22 461.01,-122.26 462.12,-115.35"/>
</g>
<!-- 6 -->
<g id="node7" class="node">
<title>6</title>
<path fill="none" stroke="#d85656" stroke-width="2" stroke-dasharray="5,2" d="M549.48,-118.25C549.48,-118.25 477.98,-118.25 477.98,-118.25 471.98,-118.25 465.98,-112.25 465.98,-106.25 465.98,-106.25 465.98,-84 465.98,-84 465.98,-78 471.98,-72 477.98,-72 477.98,-72 549.48,-72 549.48,-72 555.48,-72 561.48,-78 561.48,-84 561.48,-84 561.48,-106.25 561.48,-106.25 561.48,-112.25 555.48,-118.25 549.48,-118.25"/>
<text text-anchor="middle" x="513.73" y="-104.75" font-family="sans" font-size="10.00">run_GLM</text>
<text text-anchor="middle" x="513.73" y="-92" font-family="sans" font-size="10.00">ephys_prop: sag</text>
<text text-anchor="middle" x="513.73" y="-79.25" font-family="sans" font-size="10.00">model: simple</text>
</g>
<!-- 2&#45;&gt;6 -->
<g id="edge30" class="edge">
<title>2&#45;&gt;6</title>
<path fill="none" stroke="grey" stroke-width="2" d="M1691.05,-171.21C1540.62,-170.79 819.53,-166.39 574.97,-118.99"/>
<polygon fill="grey" stroke="grey" stroke-width="2" points="575.77,-115.58 565.27,-117.01 574.37,-122.44 575.77,-115.58"/>
</g>
<!-- 7 -->
<g id="node8" class="node">
<title>7</title>
<path fill="none" stroke="#d85656" stroke-width="2" stroke-dasharray="5,2" d="M702.36,-118.25C702.36,-118.25 591.11,-118.25 591.11,-118.25 585.11,-118.25 579.11,-112.25 579.11,-106.25 579.11,-106.25 579.11,-84 579.11,-84 579.11,-78 585.11,-72 591.11,-72 591.11,-72 702.36,-72 702.36,-72 708.36,-72 714.36,-78 714.36,-84 714.36,-84 714.36,-106.25 714.36,-106.25 714.36,-112.25 708.36,-118.25 702.36,-118.25"/>
<text text-anchor="middle" x="646.73" y="-104.75" font-family="sans" font-size="10.00">run_GLM</text>
<text text-anchor="middle" x="646.73" y="-92" font-family="sans" font-size="10.00">ephys_prop: vm_for_sag</text>
<text text-anchor="middle" x="646.73" y="-79.25" font-family="sans" font-size="10.00">model: simple</text>
</g>
<!-- 2&#45;&gt;7 -->
<g id="edge31" class="edge">
<title>2&#45;&gt;7</title>
<path fill="none" stroke="grey" stroke-width="2" d="M1690.77,-170.62C1552.76,-167.36 942.49,-151.45 727.64,-118.64"/>
<polygon fill="grey" stroke="grey" stroke-width="2" points="728.4,-115.21 717.97,-117.08 727.29,-122.12 728.4,-115.21"/>
</g>
<!-- 8 -->
<g id="node9" class="node">
<title>8</title>
<path fill="none" stroke="#d85656" stroke-width="2" stroke-dasharray="5,2" d="M878.98,-118.25C878.98,-118.25 744.48,-118.25 744.48,-118.25 738.48,-118.25 732.48,-112.25 732.48,-106.25 732.48,-106.25 732.48,-84 732.48,-84 732.48,-78 738.48,-72 744.48,-72 744.48,-72 878.98,-72 878.98,-72 884.98,-72 890.98,-78 890.98,-84 890.98,-84 890.98,-106.25 890.98,-106.25 890.98,-112.25 884.98,-118.25 878.98,-118.25"/>
<text text-anchor="middle" x="811.73" y="-104.75" font-family="sans" font-size="10.00">run_GLM</text>
<text text-anchor="middle" x="811.73" y="-92" font-family="sans" font-size="10.00">ephys_prop: input_resistance</text>
<text text-anchor="middle" x="811.73" y="-79.25" font-family="sans" font-size="10.00">model: simple</text>
</g>
<!-- 2&#45;&gt;8 -->
<g id="edge32" class="edge">
<title>2&#45;&gt;8</title>
<path fill="none" stroke="grey" stroke-width="2" d="M1690.96,-171.27C1587.85,-170.99 1217.26,-166.58 904.21,-118.82"/>
<polygon fill="grey" stroke="grey" stroke-width="2" points="905.11,-115.42 894.69,-117.35 904.04,-122.34 905.11,-115.42"/>
</g>
<!-- 9 -->
<g id="node10" class="node">
<title>9</title>
<path fill="none" stroke="#d85656" stroke-width="2" stroke-dasharray="5,2" d="M990.73,-118.25C990.73,-118.25 920.73,-118.25 920.73,-118.25 914.73,-118.25 908.73,-112.25 908.73,-106.25 908.73,-106.25 908.73,-84 908.73,-84 908.73,-78 914.73,-72 920.73,-72 920.73,-72 990.73,-72 990.73,-72 996.73,-72 1002.73,-78 1002.73,-84 1002.73,-84 1002.73,-106.25 1002.73,-106.25 1002.73,-112.25 996.73,-118.25 990.73,-118.25"/>
<text text-anchor="middle" x="955.73" y="-104.75" font-family="sans" font-size="10.00">run_GLM</text>
<text text-anchor="middle" x="955.73" y="-92" font-family="sans" font-size="10.00">ephys_prop: tau</text>
<text text-anchor="middle" x="955.73" y="-79.25" font-family="sans" font-size="10.00">model: simple</text>
</g>
<!-- 2&#45;&gt;9 -->
<g id="edge33" class="edge">
<title>2&#45;&gt;9</title>
<path fill="none" stroke="grey" stroke-width="2" d="M1690.91,-170.28C1580.06,-166.26 1168.82,-149.71 1016.36,-118.87"/>
<polygon fill="grey" stroke="grey" stroke-width="2" points="1017.17,-115.47 1006.66,-116.78 1015.7,-122.31 1017.17,-115.47"/>
</g>
<!-- 10 -->
<g id="node11" class="node">
<title>10</title>
<path fill="none" stroke="#d85656" stroke-width="2" stroke-dasharray="5,2" d="M1142.23,-118.25C1142.23,-118.25 1033.23,-118.25 1033.23,-118.25 1027.23,-118.25 1021.23,-112.25 1021.23,-106.25 1021.23,-106.25 1021.23,-84 1021.23,-84 1021.23,-78 1027.23,-72 1033.23,-72 1033.23,-72 1142.23,-72 1142.23,-72 1148.23,-72 1154.23,-78 1154.23,-84 1154.23,-84 1154.23,-106.25 1154.23,-106.25 1154.23,-112.25 1148.23,-118.25 1142.23,-118.25"/>
<text text-anchor="middle" x="1087.73" y="-104.75" font-family="sans" font-size="10.00">run_GLM</text>
<text text-anchor="middle" x="1087.73" y="-92" font-family="sans" font-size="10.00">ephys_prop: hero_adapt</text>
<text text-anchor="middle" x="1087.73" y="-79.25" font-family="sans" font-size="10.00">model: simple</text>
</g>
<!-- 2&#45;&gt;10 -->
<g id="edge34" class="edge">
<title>2&#45;&gt;10</title>
<path fill="none" stroke="grey" stroke-width="2" d="M1690.75,-170.44C1610.58,-167.71 1373.13,-156.93 1167.67,-118.83"/>
<polygon fill="grey" stroke="grey" stroke-width="2" points="1168.57,-115.43 1158.09,-117.02 1167.27,-122.31 1168.57,-115.43"/>
</g>
<!-- 11 -->
<g id="node12" class="node">
<title>11</title>
<path fill="none" stroke="#d85656" stroke-width="2" stroke-dasharray="5,2" d="M1308.73,-118.25C1308.73,-118.25 1184.73,-118.25 1184.73,-118.25 1178.73,-118.25 1172.73,-112.25 1172.73,-106.25 1172.73,-106.25 1172.73,-84 1172.73,-84 1172.73,-78 1178.73,-72 1184.73,-72 1184.73,-72 1308.73,-72 1308.73,-72 1314.73,-72 1320.73,-78 1320.73,-84 1320.73,-84 1320.73,-106.25 1320.73,-106.25 1320.73,-112.25 1314.73,-118.25 1308.73,-118.25"/>
<text text-anchor="middle" x="1246.73" y="-104.75" font-family="sans" font-size="10.00">run_GLM</text>
<text text-anchor="middle" x="1246.73" y="-92" font-family="sans" font-size="10.00">ephys_prop: hero_avg_rate</text>
<text text-anchor="middle" x="1246.73" y="-79.25" font-family="sans" font-size="10.00">model: simple</text>
</g>
<!-- 2&#45;&gt;11 -->
<g id="edge35" class="edge">
<title>2&#45;&gt;11</title>
<path fill="none" stroke="grey" stroke-width="2" d="M1691.18,-168.69C1629.13,-162.68 1473.53,-146.2 1333.88,-118.96"/>
<polygon fill="grey" stroke="grey" stroke-width="2" points="1334.74,-115.57 1324.25,-117.06 1333.38,-122.43 1334.74,-115.57"/>
</g>
<!-- 12 -->
<g id="node13" class="node">
<title>12</title>
<path fill="none" stroke="#d85656" stroke-width="2" stroke-dasharray="5,2" d="M1466.98,-118.25C1466.98,-118.25 1350.48,-118.25 1350.48,-118.25 1344.48,-118.25 1338.48,-112.25 1338.48,-106.25 1338.48,-106.25 1338.48,-84 1338.48,-84 1338.48,-78 1344.48,-72 1350.48,-72 1350.48,-72 1466.98,-72 1466.98,-72 1472.98,-72 1478.98,-78 1478.98,-84 1478.98,-84 1478.98,-106.25 1478.98,-106.25 1478.98,-112.25 1472.98,-118.25 1466.98,-118.25"/>
<text text-anchor="middle" x="1408.73" y="-104.75" font-family="sans" font-size="10.00">run_GLM</text>
<text text-anchor="middle" x="1408.73" y="-92" font-family="sans" font-size="10.00">ephys_prop: hero_first_isi</text>
<text text-anchor="middle" x="1408.73" y="-79.25" font-family="sans" font-size="10.00">model: simple</text>
</g>
<!-- 2&#45;&gt;12 -->
<g id="edge36" class="edge">
<title>2&#45;&gt;12</title>
<path fill="none" stroke="grey" stroke-width="2" d="M1690.89,-165.31C1649.6,-156.4 1569.39,-138.74 1492.12,-119.32"/>
<polygon fill="grey" stroke="grey" stroke-width="2" points="1493.23,-115.99 1482.68,-116.93 1491.52,-122.78 1493.23,-115.99"/>
</g>
<!-- 13 -->
<g id="node14" class="node">
<title>13</title>
<path fill="none" stroke="#d85656" stroke-width="2" stroke-dasharray="5,2" d="M1618.23,-118.25C1618.23,-118.25 1509.23,-118.25 1509.23,-118.25 1503.23,-118.25 1497.23,-112.25 1497.23,-106.25 1497.23,-106.25 1497.23,-84 1497.23,-84 1497.23,-78 1503.23,-72 1509.23,-72 1509.23,-72 1618.23,-72 1618.23,-72 1624.23,-72 1630.23,-78 1630.23,-84 1630.23,-84 1630.23,-106.25 1630.23,-106.25 1630.23,-112.25 1624.23,-118.25 1618.23,-118.25"/>
<text text-anchor="middle" x="1563.73" y="-104.75" font-family="sans" font-size="10.00">run_GLM</text>
<text text-anchor="middle" x="1563.73" y="-92" font-family="sans" font-size="10.00">ephys_prop: hero_isi_cv</text>
<text text-anchor="middle" x="1563.73" y="-79.25" font-family="sans" font-size="10.00">model: simple</text>
</g>
<!-- 2&#45;&gt;13 -->
<g id="edge37" class="edge">
<title>2&#45;&gt;13</title>
<path fill="none" stroke="grey" stroke-width="2" d="M1691.02,-157.82C1672.1,-148.65 1646.31,-136.15 1622.89,-124.8"/>
<polygon fill="grey" stroke="grey" stroke-width="2" points="1624.52,-121.7 1614,-120.49 1621.47,-128 1624.52,-121.7"/>
</g>
<!-- 14 -->
<g id="node15" class="node">
<title>14</title>
<path fill="none" stroke="#d85656" stroke-width="2" stroke-dasharray="5,2" d="M1777.36,-118.25C1777.36,-118.25 1660.11,-118.25 1660.11,-118.25 1654.11,-118.25 1648.11,-112.25 1648.11,-106.25 1648.11,-106.25 1648.11,-84 1648.11,-84 1648.11,-78 1654.11,-72 1660.11,-72 1660.11,-72 1777.36,-72 1777.36,-72 1783.36,-72 1789.36,-78 1789.36,-84 1789.36,-84 1789.36,-106.25 1789.36,-106.25 1789.36,-112.25 1783.36,-118.25 1777.36,-118.25"/>
<text text-anchor="middle" x="1718.73" y="-104.75" font-family="sans" font-size="10.00">run_GLM</text>
<text text-anchor="middle" x="1718.73" y="-92" font-family="sans" font-size="10.00">ephys_prop: hero_latency</text>
<text text-anchor="middle" x="1718.73" y="-79.25" font-family="sans" font-size="10.00">model: simple</text>
</g>
<!-- 2&#45;&gt;14 -->
<g id="edge38" class="edge">
<title>2&#45;&gt;14</title>
<path fill="none" stroke="grey" stroke-width="2" d="M1718.73,-153.45C1718.73,-147.05 1718.73,-139.58 1718.73,-132.18"/>
<polygon fill="grey" stroke="grey" stroke-width="2" points="1722.23,-132.24 1718.73,-122.24 1715.23,-132.24 1722.23,-132.24"/>
</g>
<!-- 15 -->
<g id="node16" class="node">
<title>15</title>
<path fill="none" stroke="#d85656" stroke-width="2" stroke-dasharray="5,2" d="M1944.48,-118.25C1944.48,-118.25 1818.98,-118.25 1818.98,-118.25 1812.98,-118.25 1806.98,-112.25 1806.98,-106.25 1806.98,-106.25 1806.98,-84 1806.98,-84 1806.98,-78 1812.98,-72 1818.98,-72 1818.98,-72 1944.48,-72 1944.48,-72 1950.48,-72 1956.48,-78 1956.48,-84 1956.48,-84 1956.48,-106.25 1956.48,-106.25 1956.48,-112.25 1950.48,-118.25 1944.48,-118.25"/>
<text text-anchor="middle" x="1881.73" y="-104.75" font-family="sans" font-size="10.00">run_GLM</text>
<text text-anchor="middle" x="1881.73" y="-92" font-family="sans" font-size="10.00">ephys_prop: hero_mean_isi</text>
<text text-anchor="middle" x="1881.73" y="-79.25" font-family="sans" font-size="10.00">model: simple</text>
</g>
<!-- 2&#45;&gt;15 -->
<g id="edge39" class="edge">
<title>2&#45;&gt;15</title>
<path fill="none" stroke="grey" stroke-width="2" d="M1746.38,-158.51C1766.53,-149.22 1794.64,-136.27 1820.01,-124.57"/>
<polygon fill="grey" stroke="grey" stroke-width="2" points="1821.46,-127.76 1829.07,-120.39 1818.53,-121.4 1821.46,-127.76"/>
</g>
<!-- 16 -->
<g id="node17" class="node">
<title>16</title>
<path fill="none" stroke="#d85656" stroke-width="2" stroke-dasharray="5,2" d="M2120.98,-118.25C2120.98,-118.25 1986.48,-118.25 1986.48,-118.25 1980.48,-118.25 1974.48,-112.25 1974.48,-106.25 1974.48,-106.25 1974.48,-84 1974.48,-84 1974.48,-78 1980.48,-72 1986.48,-72 1986.48,-72 2120.98,-72 2120.98,-72 2126.98,-72 2132.98,-78 2132.98,-84 2132.98,-84 2132.98,-106.25 2132.98,-106.25 2132.98,-112.25 2126.98,-118.25 2120.98,-118.25"/>
<text text-anchor="middle" x="2053.73" y="-104.75" font-family="sans" font-size="10.00">run_GLM</text>
<text text-anchor="middle" x="2053.73" y="-92" font-family="sans" font-size="10.00">ephys_prop: hero_median_isi</text>
<text text-anchor="middle" x="2053.73" y="-79.25" font-family="sans" font-size="10.00">model: simple</text>
</g>
<!-- 2&#45;&gt;16 -->
<g id="edge40" class="edge">
<title>2&#45;&gt;16</title>
<path fill="none" stroke="grey" stroke-width="2" d="M1746.58,-165.6C1790.21,-156.69 1877.6,-138.55 1961.11,-119.29"/>
<polygon fill="grey" stroke="grey" stroke-width="2" points="1961.76,-122.73 1970.71,-117.07 1960.18,-115.91 1961.76,-122.73"/>
</g>
<!-- 17 -->
<g id="node18" class="node">
<title>17</title>
<path fill="none" stroke="#d85656" stroke-width="2" stroke-dasharray="5,2" d="M2292.73,-118.25C2292.73,-118.25 2162.73,-118.25 2162.73,-118.25 2156.73,-118.25 2150.73,-112.25 2150.73,-106.25 2150.73,-106.25 2150.73,-84 2150.73,-84 2150.73,-78 2156.73,-72 2162.73,-72 2162.73,-72 2292.73,-72 2292.73,-72 2298.73,-72 2304.73,-78 2304.73,-84 2304.73,-84 2304.73,-106.25 2304.73,-106.25 2304.73,-112.25 2298.73,-118.25 2292.73,-118.25"/>
<text text-anchor="middle" x="2227.73" y="-104.75" font-family="sans" font-size="10.00">run_GLM</text>
<text text-anchor="middle" x="2227.73" y="-92" font-family="sans" font-size="10.00">ephys_prop: hero_stim_amp</text>
<text text-anchor="middle" x="2227.73" y="-79.25" font-family="sans" font-size="10.00">model: simple</text>
</g>
<!-- 2&#45;&gt;17 -->
<g id="edge41" class="edge">
<title>2&#45;&gt;17</title>
<path fill="none" stroke="grey" stroke-width="2" d="M1746.64,-168.99C1812.84,-163.37 1984.75,-147.24 2137.64,-118.92"/>
<polygon fill="grey" stroke="grey" stroke-width="2" points="2137.86,-122.44 2147.04,-117.15 2136.57,-115.56 2137.86,-122.44"/>
</g>
<!-- 18 -->
<g id="node19" class="node">
<title>18</title>
<path fill="none" stroke="#d85656" stroke-width="2" stroke-dasharray="5,2" d="M2472.86,-118.25C2472.86,-118.25 2334.61,-118.25 2334.61,-118.25 2328.61,-118.25 2322.61,-112.25 2322.61,-106.25 2322.61,-106.25 2322.61,-84 2322.61,-84 2322.61,-78 2328.61,-72 2334.61,-72 2334.61,-72 2472.86,-72 2472.86,-72 2478.86,-72 2484.86,-78 2484.86,-84 2484.86,-84 2484.86,-106.25 2484.86,-106.25 2484.86,-112.25 2478.86,-118.25 2472.86,-118.25"/>
<text text-anchor="middle" x="2403.73" y="-104.75" font-family="sans" font-size="10.00">run_GLM</text>
<text text-anchor="middle" x="2403.73" y="-92" font-family="sans" font-size="10.00">ephys_prop: rheo_threshold_v</text>
<text text-anchor="middle" x="2403.73" y="-79.25" font-family="sans" font-size="10.00">model: simple</text>
</g>
<!-- 2&#45;&gt;18 -->
<g id="edge42" class="edge">
<title>2&#45;&gt;18</title>
<path fill="none" stroke="grey" stroke-width="2" d="M1746.5,-170.28C1830.18,-167.04 2087.33,-154.78 2309.37,-118.86"/>
<polygon fill="grey" stroke="grey" stroke-width="2" points="2309.64,-122.36 2318.94,-117.29 2308.5,-115.45 2309.64,-122.36"/>
</g>
<!-- 19 -->
<g id="node20" class="node">
<title>19</title>
<path fill="none" stroke="#d85656" stroke-width="2" stroke-dasharray="5,2" d="M2638.73,-118.25C2638.73,-118.25 2514.73,-118.25 2514.73,-118.25 2508.73,-118.25 2502.73,-112.25 2502.73,-106.25 2502.73,-106.25 2502.73,-84 2502.73,-84 2502.73,-78 2508.73,-72 2514.73,-72 2514.73,-72 2638.73,-72 2638.73,-72 2644.73,-72 2650.73,-78 2650.73,-84 2650.73,-84 2650.73,-106.25 2650.73,-106.25 2650.73,-112.25 2644.73,-118.25 2638.73,-118.25"/>
<text text-anchor="middle" x="2576.73" y="-104.75" font-family="sans" font-size="10.00">run_GLM</text>
<text text-anchor="middle" x="2576.73" y="-92" font-family="sans" font-size="10.00">ephys_prop: rheo_trough_v</text>
<text text-anchor="middle" x="2576.73" y="-79.25" font-family="sans" font-size="10.00">model: simple</text>
</g>
<!-- 2&#45;&gt;19 -->
<g id="edge43" class="edge">
<title>2&#45;&gt;19</title>
<path fill="none" stroke="grey" stroke-width="2" d="M1746.41,-171.27C1845.84,-170.95 2194.3,-166.39 2489.1,-118.87"/>
<polygon fill="grey" stroke="grey" stroke-width="2" points="2489.48,-122.36 2498.78,-117.29 2488.35,-115.45 2489.48,-122.36"/>
</g>
<!-- 20 -->
<g id="node21" class="node">
<title>20</title>
<path fill="none" stroke="#d85656" stroke-width="2" stroke-dasharray="5,2" d="M2828.73,-118.25C2828.73,-118.25 2680.73,-118.25 2680.73,-118.25 2674.73,-118.25 2668.73,-112.25 2668.73,-106.25 2668.73,-106.25 2668.73,-84 2668.73,-84 2668.73,-78 2674.73,-72 2680.73,-72 2680.73,-72 2828.73,-72 2828.73,-72 2834.73,-72 2840.73,-78 2840.73,-84 2840.73,-84 2840.73,-106.25 2840.73,-106.25 2840.73,-112.25 2834.73,-118.25 2828.73,-118.25"/>
<text text-anchor="middle" x="2754.73" y="-104.75" font-family="sans" font-size="10.00">run_GLM</text>
<text text-anchor="middle" x="2754.73" y="-92" font-family="sans" font-size="10.00">ephys_prop: rheo_fast_trough_v</text>
<text text-anchor="middle" x="2754.73" y="-79.25" font-family="sans" font-size="10.00">model: simple</text>
</g>
<!-- 2&#45;&gt;20 -->
<g id="edge44" class="edge">
<title>2&#45;&gt;20</title>
<path fill="none" stroke="grey" stroke-width="2" d="M1746.62,-171.43C1859.26,-171.79 2291.7,-169.67 2655.24,-118.78"/>
<polygon fill="grey" stroke="grey" stroke-width="2" points="2655.46,-122.28 2664.87,-117.41 2654.48,-115.35 2655.46,-122.28"/>
</g>
<!-- 21 -->
<g id="node22" class="node">
<title>21</title>
<path fill="none" stroke="#d85656" stroke-width="2" stroke-dasharray="5,2" d="M2978.86,-118.25C2978.86,-118.25 2870.61,-118.25 2870.61,-118.25 2864.61,-118.25 2858.61,-112.25 2858.61,-106.25 2858.61,-106.25 2858.61,-84 2858.61,-84 2858.61,-78 2864.61,-72 2870.61,-72 2870.61,-72 2978.86,-72 2978.86,-72 2984.86,-72 2990.86,-78 2990.86,-84 2990.86,-84 2990.86,-106.25 2990.86,-106.25 2990.86,-112.25 2984.86,-118.25 2978.86,-118.25"/>
<text text-anchor="middle" x="2924.73" y="-104.75" font-family="sans" font-size="10.00">run_GLM</text>
<text text-anchor="middle" x="2924.73" y="-92" font-family="sans" font-size="10.00">ephys_prop: rheo_width</text>
<text text-anchor="middle" x="2924.73" y="-79.25" font-family="sans" font-size="10.00">model: simple</text>
</g>
<!-- 2&#45;&gt;21 -->
<g id="edge45" class="edge">
<title>2&#45;&gt;21</title>
<path fill="none" stroke="grey" stroke-width="2" d="M1746.66,-170.85C1896.03,-168.57 2602.45,-156.06 2845.28,-118.74"/>
<polygon fill="grey" stroke="grey" stroke-width="2" points="2845.55,-122.24 2854.87,-117.2 2844.44,-115.33 2845.55,-122.24"/>
</g>
<!-- 22 -->
<g id="node23" class="node">
<title>22</title>
<path fill="none" stroke="#d85656" stroke-width="2" stroke-dasharray="5,2" d="M3232.98,-118.25C3232.98,-118.25 3020.48,-118.25 3020.48,-118.25 3014.48,-118.25 3008.48,-112.25 3008.48,-106.25 3008.48,-106.25 3008.48,-84 3008.48,-84 3008.48,-78 3014.48,-72 3020.48,-72 3020.48,-72 3232.98,-72 3232.98,-72 3238.98,-72 3244.98,-78 3244.98,-84 3244.98,-84 3244.98,-106.25 3244.98,-106.25 3244.98,-112.25 3238.98,-118.25 3232.98,-118.25"/>
<text text-anchor="middle" x="3126.73" y="-104.75" font-family="sans" font-size="10.00">run_GLM</text>
<text text-anchor="middle" x="3126.73" y="-92" font-family="sans" font-size="10.00">ephys_prop: rheo_upstroke_downstroke_ratio</text>
<text text-anchor="middle" x="3126.73" y="-79.25" font-family="sans" font-size="10.00">model: simple</text>
</g>
<!-- 2&#45;&gt;22 -->
<g id="edge46" class="edge">
<title>2&#45;&gt;22</title>
<path fill="none" stroke="grey" stroke-width="2" d="M1746.32,-171.45C1881.65,-172.13 2488.81,-171.99 2995.13,-118.68"/>
<polygon fill="grey" stroke="grey" stroke-width="2" points="2995.24,-122.19 3004.81,-117.65 2994.5,-115.23 2995.24,-122.19"/>
</g>
<!-- 23 -->
<g id="node24" class="node">
<title>23</title>
<path fill="none" stroke="#d85656" stroke-width="2" stroke-dasharray="5,2" d="M3388.86,-118.25C3388.86,-118.25 3274.61,-118.25 3274.61,-118.25 3268.61,-118.25 3262.61,-112.25 3262.61,-106.25 3262.61,-106.25 3262.61,-84 3262.61,-84 3262.61,-78 3268.61,-72 3274.61,-72 3274.61,-72 3388.86,-72 3388.86,-72 3394.86,-72 3400.86,-78 3400.86,-84 3400.86,-84 3400.86,-106.25 3400.86,-106.25 3400.86,-112.25 3394.86,-118.25 3388.86,-118.25"/>
<text text-anchor="middle" x="3331.73" y="-104.75" font-family="sans" font-size="10.00">run_GLM</text>
<text text-anchor="middle" x="3331.73" y="-92" font-family="sans" font-size="10.00">ephys_prop: rheo_peak_t</text>
<text text-anchor="middle" x="3331.73" y="-79.25" font-family="sans" font-size="10.00">model: simple</text>
</g>
<!-- 2&#45;&gt;23 -->
<g id="edge47" class="edge">
<title>2&#45;&gt;23</title>
<path fill="none" stroke="grey" stroke-width="2" d="M1746.54,-171.21C1925.71,-170.8 2920.27,-166.44 3248.94,-118.77"/>
<polygon fill="grey" stroke="grey" stroke-width="2" points="3249.39,-122.24 3258.76,-117.29 3248.35,-115.32 3249.39,-122.24"/>
</g>
<!-- 24 -->
<g id="node25" class="node">
<title>24</title>
<path fill="none" stroke="#d85656" stroke-width="2" stroke-dasharray="5,2" d="M3576.61,-118.25C3576.61,-118.25 3430.86,-118.25 3430.86,-118.25 3424.86,-118.25 3418.86,-112.25 3418.86,-106.25 3418.86,-106.25 3418.86,-84 3418.86,-84 3418.86,-78 3424.86,-72 3430.86,-72 3430.86,-72 3576.61,-72 3576.61,-72 3582.61,-72 3588.61,-78 3588.61,-84 3588.61,-84 3588.61,-106.25 3588.61,-106.25 3588.61,-112.25 3582.61,-118.25 3576.61,-118.25"/>
<text text-anchor="middle" x="3503.73" y="-104.75" font-family="sans" font-size="10.00">run_GLM</text>
<text text-anchor="middle" x="3503.73" y="-92" font-family="sans" font-size="10.00">ephys_prop: rheo_fast_trough_t</text>
<text text-anchor="middle" x="3503.73" y="-79.25" font-family="sans" font-size="10.00">model: simple</text>
</g>
<!-- 2&#45;&gt;24 -->
<g id="edge48" class="edge">
<title>2&#45;&gt;24</title>
<path fill="none" stroke="grey" stroke-width="2" d="M1746.5,-171.14C1936.03,-170.27 3042.11,-163.39 3405.19,-118.68"/>
<polygon fill="grey" stroke="grey" stroke-width="2" points="3405.57,-122.16 3415.05,-117.42 3404.69,-115.21 3405.57,-122.16"/>
</g>
<!-- 25 -->
<g id="node26" class="node">
<title>25</title>
<path fill="none" stroke="#d85656" stroke-width="2" stroke-dasharray="5,2" d="M3740.61,-118.25C3740.61,-118.25 3618.86,-118.25 3618.86,-118.25 3612.86,-118.25 3606.86,-112.25 3606.86,-106.25 3606.86,-106.25 3606.86,-84 3606.86,-84 3606.86,-78 3612.86,-72 3618.86,-72 3618.86,-72 3740.61,-72 3740.61,-72 3746.61,-72 3752.61,-78 3752.61,-84 3752.61,-84 3752.61,-106.25 3752.61,-106.25 3752.61,-112.25 3746.61,-118.25 3740.61,-118.25"/>
<text text-anchor="middle" x="3679.73" y="-104.75" font-family="sans" font-size="10.00">run_GLM</text>
<text text-anchor="middle" x="3679.73" y="-92" font-family="sans" font-size="10.00">ephys_prop: rheo_trough_t</text>
<text text-anchor="middle" x="3679.73" y="-79.25" font-family="sans" font-size="10.00">model: simple</text>
</g>
<!-- 2&#45;&gt;25 -->
<g id="edge49" class="edge">
<title>2&#45;&gt;25</title>
<path fill="none" stroke="grey" stroke-width="2" d="M1746.6,-171.36C1948.58,-172.05 3191.04,-173.97 3593.34,-118.68"/>
<polygon fill="grey" stroke="grey" stroke-width="2" points="3593.74,-122.16 3603.15,-117.28 3592.76,-115.23 3593.74,-122.16"/>
</g>
<!-- 26 -->
<g id="node27" class="node">
<title>26</title>
<path fill="none" stroke="#d85656" stroke-width="2" stroke-dasharray="5,2" d="M3898.98,-118.25C3898.98,-118.25 3782.48,-118.25 3782.48,-118.25 3776.48,-118.25 3770.48,-112.25 3770.48,-106.25 3770.48,-106.25 3770.48,-84 3770.48,-84 3770.48,-78 3776.48,-72 3782.48,-72 3782.48,-72 3898.98,-72 3898.98,-72 3904.98,-72 3910.98,-78 3910.98,-84 3910.98,-84 3910.98,-106.25 3910.98,-106.25 3910.98,-112.25 3904.98,-118.25 3898.98,-118.25"/>
<text text-anchor="middle" x="3840.73" y="-104.75" font-family="sans" font-size="10.00">run_GLM</text>
<text text-anchor="middle" x="3840.73" y="-92" font-family="sans" font-size="10.00">ephys_prop: rheo_peak_v</text>
<text text-anchor="middle" x="3840.73" y="-79.25" font-family="sans" font-size="10.00">model: simple</text>
</g>
<!-- 2&#45;&gt;26 -->
<g id="edge50" class="edge">
<title>2&#45;&gt;26</title>
<path fill="none" stroke="grey" stroke-width="2" d="M1746.66,-170.94C1972.51,-168.41 3498.61,-150.25 3757.2,-118.58"/>
<polygon fill="grey" stroke="grey" stroke-width="2" points="3757.41,-122.08 3766.85,-117.27 3756.47,-115.15 3757.41,-122.08"/>
</g>
<!-- 3 -->
<g id="node4" class="node">
<title>3</title>
<path fill="none" stroke="#88d856" stroke-width="2" stroke-dasharray="5,2" d="M1749.23,-262.25C1749.23,-262.25 1688.23,-262.25 1688.23,-262.25 1682.23,-262.25 1676.23,-256.25 1676.23,-250.25 1676.23,-250.25 1676.23,-238.25 1676.23,-238.25 1676.23,-232.25 1682.23,-226.25 1688.23,-226.25 1688.23,-226.25 1749.23,-226.25 1749.23,-226.25 1755.23,-226.25 1761.23,-232.25 1761.23,-238.25 1761.23,-238.25 1761.23,-250.25 1761.23,-250.25 1761.23,-256.25 1755.23,-262.25 1749.23,-262.25"/>
<text text-anchor="middle" x="1718.73" y="-247.5" font-family="sans" font-size="10.00">tabs_to_adata</text>
<text text-anchor="middle" x="1718.73" y="-234.75" font-family="sans" font-size="10.00">group_by: five</text>
</g>
<!-- 3&#45;&gt;2 -->
<g id="edge27" class="edge">
<title>3&#45;&gt;2</title>
<path fill="none" stroke="grey" stroke-width="2" d="M1718.73,-225.59C1718.73,-219 1718.73,-211.33 1718.73,-203.92"/>
<polygon fill="grey" stroke="grey" stroke-width="2" points="1722.23,-204.18 1718.73,-194.18 1715.23,-204.18 1722.23,-204.18"/>
</g>
<!-- 4&#45;&gt;0 -->
<g id="edge2" class="edge">
<title>4&#45;&gt;0</title>
<path fill="none" stroke="grey" stroke-width="2" d="M300.19,-73.59C303.06,-72.99 305.92,-72.46 308.73,-72 576.13,-28.24 1434.28,-20.53 1662.53,-19.25"/>
<polygon fill="grey" stroke="grey" stroke-width="2" points="1662.4,-22.75 1672.38,-19.19 1662.36,-15.75 1662.4,-22.75"/>
</g>
<!-- 5&#45;&gt;0 -->
<g id="edge3" class="edge">
<title>5&#45;&gt;0</title>
<path fill="none" stroke="grey" stroke-width="2" d="M448.7,-73.52C451.4,-72.95 454.09,-72.44 456.73,-72 693.73,-32.23 1449.95,-21.71 1662.61,-19.51"/>
<polygon fill="grey" stroke="grey" stroke-width="2" points="1662.54,-23.01 1672.51,-19.41 1662.47,-16.01 1662.54,-23.01"/>
</g>
<!-- 6&#45;&gt;0 -->
<g id="edge4" class="edge">
<title>6&#45;&gt;0</title>
<path fill="none" stroke="grey" stroke-width="2" d="M562.3,-73.84C564.79,-73.15 567.28,-72.53 569.73,-72 781.94,-26.51 1462.15,-20.06 1662.62,-19.15"/>
<polygon fill="grey" stroke="grey" stroke-width="2" points="1662.39,-22.65 1672.37,-19.11 1662.36,-15.65 1662.39,-22.65"/>
</g>
<!-- 7&#45;&gt;0 -->
<g id="edge5" class="edge">
<title>7&#45;&gt;0</title>
<path fill="none" stroke="grey" stroke-width="2" d="M714.98,-73.65C717.92,-73.04 720.85,-72.48 723.73,-72 906.39,-41.3 1479.68,-24.88 1662.27,-20.33"/>
<polygon fill="grey" stroke="grey" stroke-width="2" points="1662.3,-23.83 1672.21,-20.08 1662.13,-16.83 1662.3,-23.83"/>
</g>
<!-- 8&#45;&gt;0 -->
<g id="edge6" class="edge">
<title>8&#45;&gt;0</title>
<path fill="none" stroke="grey" stroke-width="2" d="M891.7,-73.36C894.4,-72.87 897.09,-72.41 899.73,-72 1183.82,-27.47 1529,-20.21 1662.38,-19.13"/>
<polygon fill="grey" stroke="grey" stroke-width="2" points="1662.36,-22.63 1672.33,-19.06 1662.31,-15.63 1662.36,-22.63"/>
</g>
<!-- 9&#45;&gt;0 -->
<g id="edge7" class="edge">
<title>9&#45;&gt;0</title>
<path fill="none" stroke="grey" stroke-width="2" d="M1003.7,-74.11C1006.39,-73.32 1009.08,-72.61 1011.73,-72 1135.34,-43.64 1518.05,-26.59 1662.64,-21.03"/>
<polygon fill="grey" stroke="grey" stroke-width="2" points="1662.58,-24.53 1672.44,-20.65 1662.32,-17.54 1662.58,-24.53"/>
</g>
<!-- 10&#45;&gt;0 -->
<g id="edge8" class="edge">
<title>10&#45;&gt;0</title>
<path fill="none" stroke="grey" stroke-width="2" d="M1155.12,-73.79C1158.02,-73.15 1160.9,-72.54 1163.73,-72 1344.1,-37.45 1561.96,-25 1662.67,-20.87"/>
<polygon fill="grey" stroke="grey" stroke-width="2" points="1662.64,-24.38 1672.49,-20.48 1662.36,-17.38 1662.64,-24.38"/>
</g>
<!-- 11&#45;&gt;0 -->
<g id="edge9" class="edge">
<title>11&#45;&gt;0</title>
<path fill="none" stroke="grey" stroke-width="2" d="M1321.28,-73.78C1324.13,-73.15 1326.95,-72.56 1329.73,-72 1447.23,-48.43 1586.83,-32.24 1662.74,-24.4"/>
<polygon fill="grey" stroke="grey" stroke-width="2" points="1662.66,-27.93 1672.25,-23.44 1661.95,-20.97 1662.66,-27.93"/>
</g>
<!-- 12&#45;&gt;0 -->
<g id="edge10" class="edge">
<title>12&#45;&gt;0</title>
<path fill="none" stroke="grey" stroke-width="2" d="M1479.75,-74.06C1482.44,-73.36 1485.11,-72.67 1487.73,-72 1547.32,-56.83 1616.06,-41.31 1662.96,-31.02"/>
<polygon fill="grey" stroke="grey" stroke-width="2" points="1663.6,-34.46 1672.63,-28.9 1662.11,-27.62 1663.6,-34.46"/>
</g>
<!-- 13&#45;&gt;0 -->
<g id="edge11" class="edge">
<title>13&#45;&gt;0</title>
<path fill="none" stroke="grey" stroke-width="2" d="M1611.08,-71.18C1629.79,-62.11 1651.28,-51.69 1670.11,-42.56"/>
<polygon fill="grey" stroke="grey" stroke-width="2" points="1671.55,-45.76 1679.03,-38.24 1668.5,-39.46 1671.55,-45.76"/>
</g>
<!-- 14&#45;&gt;0 -->
<g id="edge12" class="edge">
<title>14&#45;&gt;0</title>
<path fill="none" stroke="grey" stroke-width="2" d="M1718.73,-71.18C1718.73,-64.36 1718.73,-56.78 1718.73,-49.56"/>
<polygon fill="grey" stroke="grey" stroke-width="2" points="1722.23,-49.83 1718.73,-39.83 1715.23,-49.83 1722.23,-49.83"/>
</g>
<!-- 15&#45;&gt;0 -->
<g id="edge13" class="edge">
<title>15&#45;&gt;0</title>
<path fill="none" stroke="grey" stroke-width="2" d="M1831.94,-71.18C1812.08,-62.02 1789.23,-51.49 1769.29,-42.3"/>
<polygon fill="grey" stroke="grey" stroke-width="2" points="1770.92,-39.2 1760.37,-38.19 1767.99,-45.56 1770.92,-39.2"/>
</g>
<!-- 16&#45;&gt;0 -->
<g id="edge14" class="edge">
<title>16&#45;&gt;0</title>
<path fill="none" stroke="grey" stroke-width="2" d="M1973.66,-73.87C1970.99,-73.23 1968.34,-72.61 1965.73,-72 1900.31,-56.76 1824.75,-40.78 1774.61,-30.41"/>
<polygon fill="grey" stroke="grey" stroke-width="2" points="1775.58,-27.04 1765.08,-28.44 1774.16,-33.89 1775.58,-27.04"/>
</g>
<!-- 17&#45;&gt;0 -->
<g id="edge15" class="edge">
<title>17&#45;&gt;0</title>
<path fill="none" stroke="grey" stroke-width="2" d="M2150.01,-73.66C2147.22,-73.07 2144.46,-72.52 2141.73,-72 2011.39,-47.17 1856.17,-31.13 1774.83,-23.74"/>
<polygon fill="grey" stroke="grey" stroke-width="2" points="1775.23,-20.26 1764.96,-22.86 1774.61,-27.23 1775.23,-20.26"/>
</g>
<!-- 18&#45;&gt;0 -->
<g id="edge16" class="edge">
<title>18&#45;&gt;0</title>
<path fill="none" stroke="grey" stroke-width="2" d="M2321.92,-73.45C2319.17,-72.94 2316.43,-72.45 2313.73,-72 2117.28,-39.3 1880.75,-25.83 1774.81,-21.15"/>
<polygon fill="grey" stroke="grey" stroke-width="2" points="1775.11,-17.66 1764.97,-20.72 1774.81,-24.65 1775.11,-17.66"/>
</g>
<!-- 19&#45;&gt;0 -->
<g id="edge17" class="edge">
<title>19&#45;&gt;0</title>
<path fill="none" stroke="grey" stroke-width="2" d="M2501.77,-73.45C2499.07,-72.93 2496.38,-72.44 2493.73,-72 2227.1,-27.77 1902.98,-20.31 1774.78,-19.15"/>
<polygon fill="grey" stroke="grey" stroke-width="2" points="1774.97,-15.66 1764.94,-19.08 1774.91,-22.66 1774.97,-15.66"/>
</g>
<!-- 20&#45;&gt;0 -->
<g id="edge18" class="edge">
<title>20&#45;&gt;0</title>
<path fill="none" stroke="grey" stroke-width="2" d="M2667.87,-73.26C2665.13,-72.81 2662.41,-72.38 2659.73,-72 2326.75,-24.21 1921.73,-19 1775.11,-18.8"/>
<polygon fill="grey" stroke="grey" stroke-width="2" points="1775.17,-15.3 1765.17,-18.79 1775.16,-22.3 1775.17,-15.3"/>
</g>
<!-- 21&#45;&gt;0 -->
<g id="edge19" class="edge">
<title>21&#45;&gt;0</title>
<path fill="none" stroke="grey" stroke-width="2" d="M2857.86,-73.53C2855.13,-72.97 2852.41,-72.45 2849.73,-72 2639.52,-36.6 1973.67,-23.14 1775.13,-19.85"/>
<polygon fill="grey" stroke="grey" stroke-width="2" points="1775.28,-16.36 1765.23,-19.69 1775.17,-23.36 1775.28,-16.36"/>
</g>
<!-- 22&#45;&gt;0 -->
<g id="edge20" class="edge">
<title>22&#45;&gt;0</title>
<path fill="none" stroke="grey" stroke-width="2" d="M3007.82,-72.92C3005.1,-72.59 3002.4,-72.29 2999.73,-72 2528.2,-21.39 1954.25,-18.31 1774.97,-18.7"/>
<polygon fill="grey" stroke="grey" stroke-width="2" points="1775.03,-15.2 1765.04,-18.73 1775.05,-22.2 1775.03,-15.2"/>
</g>
<!-- 23&#45;&gt;0 -->
<g id="edge21" class="edge">
<title>23&#45;&gt;0</title>
<path fill="none" stroke="grey" stroke-width="2" d="M3261.75,-73.41C3259.05,-72.89 3256.37,-72.41 3253.73,-72 2960.44,-26.04 2016.08,-19.93 1775.11,-19.12"/>
<polygon fill="grey" stroke="grey" stroke-width="2" points="1775.25,-15.62 1765.24,-19.09 1775.23,-22.62 1775.25,-15.62"/>
</g>
<!-- 24&#45;&gt;0 -->
<g id="edge22" class="edge">
<title>24&#45;&gt;0</title>
<path fill="none" stroke="grey" stroke-width="2" d="M3418.05,-73.21C3415.25,-72.77 3412.47,-72.36 3409.73,-72 3083.07,-28.88 2030.14,-20.63 1774.87,-19.25"/>
<polygon fill="grey" stroke="grey" stroke-width="2" points="1774.98,-15.75 1764.97,-19.2 1774.95,-22.75 1774.98,-15.75"/>
</g>
<!-- 25&#45;&gt;0 -->
<g id="edge23" class="edge">
<title>25&#45;&gt;0</title>
<path fill="none" stroke="grey" stroke-width="2" d="M3606.15,-73.39C3603.31,-72.88 3600.5,-72.41 3597.73,-72 3232.78,-18.38 2047.19,-18.13 1774.85,-18.81"/>
<polygon fill="grey" stroke="grey" stroke-width="2" points="1774.87,-15.3 1764.88,-18.83 1774.88,-22.3 1774.87,-15.3"/>
</g>
<!-- 26&#45;&gt;0 -->
<g id="edge24" class="edge">
<title>26&#45;&gt;0</title>
<path fill="none" stroke="grey" stroke-width="2" d="M3769.85,-73.38C3767.12,-72.87 3764.41,-72.4 3761.73,-72 3560.79,-41.73 2083.37,-23.19 1775.03,-19.63"/>
<polygon fill="grey" stroke="grey" stroke-width="2" points="1775.13,-16.13 1765.09,-19.52 1775.05,-23.13 1775.13,-16.13"/>
</g>
</g>
</svg>
